<mxfile host="app.diagrams.net" modified="2024-01-15T00:52:10.658Z" agent="Mozilla/5.0 (Windows NT 10.0; Win64; x64) AppleWebKit/537.36 (KHTML, like Gecko) Chrome/120.0.0.0 Safari/537.36" version="22.1.18" etag="zi72AN7rX0z9oNATmDyK" type="github">
  <diagram name="Page-1" id="_P3Js3B1pa2HfRk3GVIg">
    <mxGraphModel>
      <root>
        <mxCell id="0" />
        <mxCell id="1" parent="0" />
      </root>
    </mxGraphModel>
  </diagram>
</mxfile>
